<?xml version="1.0" encoding="utf-8"?>
<!-- Generator: Adobe Illustrator 23.1.1, SVG Export Plug-In . SVG Version: 6.00 Build 0)  -->
<svg version="1.1" id="Layer_1" xmlns="http://www.w3.org/2000/svg" xmlns:xlink="http://www.w3.org/1999/xlink" x="0px" y="0px"
	 width="438.74px" height="509.35px" viewBox="0 0 438.74 509.35" style="enable-background:new 0 0 438.74 509.35;"
	 xml:space="preserve">
<style type="text/css">
	.st0{fill:#231F20;}
</style>
<g>
	<path class="st0" d="M168.49,504.53h2.49v1.49h-2.49v3.22h-1.5v-7.85h4.78v1.49h-3.27V504.53z"/>
	<path class="st0" d="M175.72,509.24v-1.49h1.64v-4.87h-1.64v-1.49h4.78v1.49h-1.64v4.87h1.64v1.49H175.72z"/>
	<path class="st0" d="M187.2,504.75h2.96v1.69c0,1.74-1.08,2.9-2.96,2.9c-1.88,0-2.96-1.17-2.96-2.9v-2.27c0-1.74,1.08-2.9,2.96-2.9
		c1.77,0,2.83,1.03,2.95,2.59h-1.51c-0.13-0.71-0.72-1.1-1.44-1.1c-0.82,0-1.46,0.5-1.46,1.41v2.27c0,0.91,0.64,1.41,1.46,1.41
		c0.82,0,1.46-0.5,1.46-1.41v-0.2h-1.46V504.75z"/>
	<path class="st0" d="M202.92,509.24v-1.49h1.64v-4.87h-1.64v-1.49h4.78v1.49h-1.64v4.87h1.64v1.49H202.92z"/>
	<path class="st0" d="M213.47,507.45h1.79v1.79h-1.79V507.45z"/>
	<path class="st0" d="M235.51,506.62c-0.07,1.65-1.13,2.74-2.96,2.74c-1.88,0-2.96-1.17-2.96-2.9v-2.27c0-1.74,1.08-2.9,2.96-2.9
		c1.83,0,2.89,1.09,2.96,2.74H234c-0.08-0.8-0.68-1.24-1.45-1.24c-0.82,0-1.46,0.5-1.46,1.41v2.27c0,0.91,0.64,1.41,1.46,1.41
		c0.76,0,1.37-0.44,1.45-1.24H235.51z"/>
	<path class="st0" d="M240.33,506.01v3.23h-1.5v-7.85h3.31c1.59,0,2.48,0.9,2.48,2.31c0,1.17-0.59,1.97-1.69,2.23l1.95,3.31h-1.73
		l-1.9-3.23H240.33z M242.16,502.88h-1.84v1.67h1.84c0.57,0,0.94-0.29,0.94-0.83C243.11,503.17,242.74,502.88,242.16,502.88z"/>
	<path class="st0" d="M250.62,509.35c-1.88,0-2.96-1.17-2.96-2.9v-2.27c0-1.74,1.08-2.9,2.96-2.9c1.88,0,2.96,1.17,2.96,2.9v2.27
		C253.58,508.19,252.51,509.35,250.62,509.35z M252.08,504.18c0-0.91-0.64-1.41-1.46-1.41c-0.82,0-1.46,0.5-1.46,1.41v2.27
		c0,0.91,0.64,1.41,1.46,1.41c0.82,0,1.46-0.5,1.46-1.41V504.18z"/>
	<path class="st0" d="M260.82,507l0.65-5.61h1.51l-1.12,7.85h-1.5l-0.67-4.71l-0.67,4.71h-1.5l-1.12-7.85h1.51l0.65,5.61l0.64-4.49
		h0.99L260.82,507z"/>
	<path class="st0" d="M265.83,509.24v-7.85h2.96c1.88,0,2.96,1.17,2.96,2.9v2.04c0,1.74-1.08,2.9-2.96,2.9H265.83z M270.25,504.29
		c0-0.91-0.64-1.41-1.46-1.41h-1.46v4.87h1.46c0.82,0,1.46-0.5,1.46-1.41V504.29z"/>
</g>
<g>
	<path class="st0" d="M219.37,438.74c-58.6,0-113.68-22.82-155.12-64.25C22.82,333.06,0,277.97,0,219.37S22.82,105.69,64.25,64.25
		C105.69,22.82,160.78,0,219.37,0s113.68,22.82,155.12,64.25c41.43,41.43,64.25,96.52,64.25,155.12s-22.82,113.68-64.25,155.12
		C333.06,415.92,277.97,438.74,219.37,438.74z M219.37,0.67c-58.42,0-113.34,22.75-154.64,64.05
		C23.42,106.04,0.67,160.95,0.67,219.37s22.75,113.34,64.05,154.64c41.31,41.31,96.23,64.06,154.64,64.06
		c58.42,0,113.34-22.75,154.64-64.06c41.31-41.31,64.06-96.23,64.06-154.64s-22.75-113.34-64.06-154.64
		C332.71,23.42,277.79,0.67,219.37,0.67z"/>
</g>
</svg>
