<?xml version="1.0" encoding="utf-8"?>
<!-- Generator: Adobe Illustrator 23.1.1, SVG Export Plug-In . SVG Version: 6.00 Build 0)  -->
<svg version="1.1" id="Layer_1" xmlns="http://www.w3.org/2000/svg" xmlns:xlink="http://www.w3.org/1999/xlink" x="0px" y="0px"
	 width="91.43px" height="130.15px" viewBox="0 0 91.43 130.15" style="enable-background:new 0 0 91.43 130.15;"
	 xml:space="preserve">
<g>
	<path d="M85.2,129c-1.73,0-3.15-0.56-4.27-1.67c-1.12-1.1-1.68-2.53-1.68-4.27c0-1.73,0.56-3.16,1.68-4.27
		c1.12-1.11,2.54-1.67,4.27-1.67c1.72,0,3.14,0.56,4.26,1.67c1.12,1.11,1.68,2.54,1.68,4.27c0,1.74-0.56,3.17-1.68,4.27
		C88.35,128.44,86.93,129,85.2,129z M85.2,128.35c1.51,0,2.77-0.48,3.78-1.46c1-0.97,1.5-2.24,1.5-3.83c0-1.59-0.5-2.86-1.5-3.83
		c-1.01-0.97-2.26-1.45-3.78-1.45c-1.52,0-2.78,0.48-3.78,1.45c-1.01,0.97-1.51,2.24-1.51,3.83c0,1.59,0.5,2.86,1.51,3.83
		C82.42,127.86,83.68,128.35,85.2,128.35z M83.33,125.36c-0.52-0.56-0.77-1.32-0.77-2.3s0.26-1.75,0.77-2.3
		c0.52-0.56,1.19-0.83,2.03-0.83c0.6,0,1.13,0.16,1.57,0.49c0.43,0.33,0.73,0.77,0.9,1.32H87.1c-0.28-0.77-0.86-1.15-1.73-1.15
		c-1.35,0-2.14,0.85-2.14,2.47c0,1.63,0.8,2.47,2.14,2.47c0.87,0,1.45-0.39,1.73-1.15h0.74c-0.17,0.55-0.47,0.98-0.9,1.31
		c-0.44,0.33-0.97,0.5-1.57,0.5C84.53,126.2,83.85,125.91,83.33,125.36z"/>
</g>
<g>
	<path d="M0,0h15.3c0.9,0,1.72,0.48,1.72,1.72c0,1.24-0.83,1.72-1.72,1.72H3.45v5.31h8.48c0.9,0,1.72,0.48,1.72,1.72
		c0,1.24-0.83,1.72-1.72,1.72H3.45v12.89c0,1.1-0.48,1.72-1.72,1.72S0,26.19,0,25.08V0z"/>
	<path d="M39.55,9.68c0.66,1.34,0.9,2.34,0.9,3.82c0,1.65-0.45,2.69-1.14,4.1l-3.17,6.34c-0.83,1.65-2.21,2.86-4.2,2.86
		c-2,0-3.38-1.21-4.2-2.86l-3.17-6.34c-0.69-1.41-1.14-2.45-1.14-4.1c0-1.48,0.24-2.48,0.9-3.82l3.45-6.86C28.59,1.21,30,0,31.93,0
		s3.34,1.21,4.17,2.83L39.55,9.68z M33.11,4.48c-0.28-0.55-0.45-1.03-1.17-1.03s-0.9,0.48-1.17,1.03l-3.1,6.24
		c-0.52,1-0.79,1.65-0.79,2.79c0,0.9,0.21,1.52,0.59,2.27l3.31,6.55c0.24,0.48,0.48,1.03,1.17,1.03c0.69,0,0.93-0.55,1.17-1.03
		l3.31-6.55C36.79,15.02,37,14.4,37,13.51c0-1.14-0.28-1.79-0.79-2.79L33.11,4.48z"/>
	<path d="M54.5,26.81c-1.72,0-3.07-0.41-4.27-1.76c-1.14-1.27-1.31-2.52-1.31-4.1V1.72c0-1.1,0.48-1.72,1.72-1.72
		s1.72,0.62,1.72,1.72v19.23c0,1.93,0.59,2.41,2.14,2.41h5.86c1.55,0,2.14-0.48,2.14-2.41V1.72c0-1.1,0.48-1.72,1.72-1.72
		s1.72,0.62,1.72,1.72v19.23c0,1.58-0.17,2.83-1.31,4.1c-1.21,1.34-2.55,1.76-4.27,1.76H54.5z"/>
	<path d="M77.85,25.08c0,1.1-0.48,1.72-1.72,1.72s-1.72-0.62-1.72-1.72V0h11.58c2.72,0,5.44,1.93,5.44,5v2.38
		c0,3.24-2.69,4.89-5.44,4.89h-3.17l7.75,11.09c0.38,0.52,0.86,1.17,0.86,1.83c0,0.96-0.79,1.62-1.76,1.62
		c-0.69,0-1.14-0.41-1.52-0.96l-9.51-13.57h-0.79V25.08z M77.85,8.82h7.65c0.96,0,2.48-0.07,2.48-1.45V5c0-1.38-1.41-1.55-2.45-1.55
		h-7.68V8.82z"/>
	<path d="M16.12,44.13c0.66,1.34,0.9,2.34,0.9,3.82c0,1.65-0.45,2.69-1.14,4.1l-3.17,6.34c-0.83,1.65-2.21,2.86-4.2,2.86
		c-2,0-3.38-1.21-4.2-2.86l-3.17-6.34C0.45,50.64,0,49.61,0,47.96c0-1.48,0.24-2.48,0.9-3.82l3.45-6.86
		c0.83-1.62,2.24-2.83,4.17-2.83c1.93,0,3.34,1.21,4.17,2.83L16.12,44.13z M9.68,38.93c-0.28-0.55-0.45-1.03-1.17-1.03
		s-0.9,0.48-1.17,1.03l-3.1,6.24c-0.52,1-0.79,1.65-0.79,2.79c0,0.9,0.21,1.52,0.59,2.27l3.31,6.55c0.24,0.48,0.48,1.03,1.17,1.03
		c0.69,0,0.93-0.55,1.17-1.03l3.31-6.55c0.38-0.76,0.59-1.38,0.59-2.27c0-1.14-0.28-1.79-0.79-2.79L9.68,38.93z"/>
	<path d="M5.58,95.7c-1.72,0-3.07-0.41-4.27-1.76C0.17,92.67,0,91.43,0,89.85V70.62c0-1.1,0.48-1.72,1.72-1.72s1.72,0.62,1.72,1.72
		v19.22c0,1.93,0.59,2.41,2.14,2.41h5.86c1.55,0,2.14-0.48,2.14-2.41V70.62c0-1.1,0.48-1.72,1.72-1.72s1.72,0.62,1.72,1.72v19.22
		c0,1.58-0.17,2.83-1.31,4.1c-1.21,1.34-2.55,1.76-4.27,1.76H5.58z"/>
	<path d="M3.45,128.43c0,1.1-0.48,1.72-1.72,1.72S0,129.53,0,128.43v-25.08h11.58c2.72,0,5.44,1.93,5.44,5v2.38
		c0,3.24-2.69,4.89-5.44,4.89H8.41l7.75,11.09c0.38,0.52,0.86,1.17,0.86,1.83c0,0.96-0.79,1.62-1.76,1.62
		c-0.69,0-1.14-0.41-1.52-0.96l-9.51-13.58H3.45V128.43z M3.45,112.17h7.65c0.96,0,2.48-0.07,2.48-1.45v-2.38
		c0-1.38-1.41-1.55-2.45-1.55H3.45V112.17z"/>
</g>
</svg>
